<svg width="114" height="114" viewBox="0 0 114 114" fill="none" xmlns="http://www.w3.org/2000/svg">
<path fill-rule="evenodd" clip-rule="evenodd" d="M84.8528 28.2843C86.8054 30.2369 86.8054 33.4027 84.8528 35.3553L67.0341 53.174C66.5156 51.571 65.6198 50.0635 64.3467 48.7904C63.0736 47.5173 61.5661 46.6214 59.9631 46.1029L77.7817 28.2843C79.7344 26.3317 82.9002 26.3316 84.8528 28.2843ZM46.103 59.9631L28.2843 77.7817C26.3317 79.7344 26.3317 82.9002 28.2843 84.8528C30.2369 86.8054 33.4027 86.8054 35.3553 84.8528L53.174 67.0341C51.571 66.5156 50.0635 65.6198 48.7904 64.3467C47.5173 63.0736 46.6215 61.5661 46.103 59.9631Z" fill="#4BEA15"/>
<path d="M35.3553 28.2843C33.4027 26.3316 30.2369 26.3316 28.2843 28.2843C26.3317 30.2369 26.3317 33.4027 28.2843 35.3553L46.103 53.174C46.6215 51.571 47.5173 50.0635 48.7904 48.7904C50.0635 47.5173 51.571 46.6215 53.174 46.1029L35.3553 28.2843Z" fill="#154BEA"/>
<path d="M77.7817 84.8528C79.7344 86.8054 82.9002 86.8054 84.8528 84.8528C86.8054 82.9002 86.8054 79.7344 84.8528 77.7817L67.0341 59.9631C66.5156 61.5661 65.6198 63.0736 64.3467 64.3467C63.0736 65.6198 61.5661 66.5156 59.9631 67.0341L77.7817 84.8528Z" fill="#154BEA"/>
<path d="M62.2254 62.2254C59.1012 65.3496 54.0359 65.3496 50.9117 62.2254C47.7875 59.1012 47.7875 54.0359 50.9117 50.9117C54.0359 47.7875 59.1012 47.7875 62.2254 50.9117C65.3496 54.0359 65.3496 59.1012 62.2254 62.2254Z" fill="#270B12"/>
</svg>
