<svg width="1440" height="613" viewBox="0 0 1440 613" fill="none" xmlns="http://www.w3.org/2000/svg">
<g clip-path="url(#clip0_163_488)">
<path d="M-204.976 612.25C65.1339 612.25 57.2846 306.125 -204.976 306.125H-152.476C109.785 306.125 117.634 612.25 -152.476 612.25H-204.976Z" fill="#270B12"/>
<path d="M-137.851 306.125C-407.96 306.125 -400.111 0 -137.851 0H-190.351C-452.611 0 -460.46 306.125 -190.351 306.125H-137.851Z" fill="#270B12"/>
</g>
<g clip-path="url(#clip1_163_488)">
<path d="M-144.976 612.25C125.134 612.25 117.285 306.125 -144.976 306.125H-92.4755C169.785 306.125 177.634 612.25 -92.4755 612.25H-144.976Z" fill="#270B12"/>
<path d="M-77.8506 306.125C-347.96 306.125 -340.111 0 -77.8506 0H-130.351C-392.611 0 -400.46 306.125 -130.351 306.125H-77.8506Z" fill="#270B12"/>
</g>
<g clip-path="url(#clip2_163_488)">
<path d="M-84.9755 612.25C185.134 612.25 177.285 306.125 -84.9755 306.125H-32.4755C229.785 306.125 237.634 612.25 -32.4755 612.25H-84.9755Z" fill="#270B12"/>
<path d="M-17.8506 306.125C-287.96 306.125 -280.111 0 -17.8506 0H-70.3506C-332.611 0 -340.46 306.125 -70.3506 306.125H-17.8506Z" fill="#270B12"/>
</g>
<g clip-path="url(#clip3_163_488)">
<path d="M-24.9755 612.25C245.134 612.25 237.285 306.125 -24.9755 306.125H27.5245C289.785 306.125 297.634 612.25 27.5245 612.25H-24.9755Z" fill="#270B12"/>
<path d="M42.1494 306.125C-227.96 306.125 -220.111 0 42.1494 0H-10.3506C-272.611 0 -280.46 306.125 -10.3506 306.125H42.1494Z" fill="#270B12"/>
</g>
<g clip-path="url(#clip4_163_488)">
<path d="M35.0245 612.25C305.134 612.25 297.285 306.125 35.0245 306.125H87.5245C349.785 306.125 357.634 612.25 87.5245 612.25H35.0245Z" fill="#270B12"/>
<path d="M102.149 306.125C-167.96 306.125 -160.111 0 102.149 0H49.6494C-212.611 0 -220.46 306.125 49.6494 306.125H102.149Z" fill="#270B12"/>
</g>
<g clip-path="url(#clip5_163_488)">
<path d="M95.0245 612.25C365.134 612.25 357.285 306.125 95.0245 306.125H147.524C409.785 306.125 417.634 612.25 147.524 612.25H95.0245Z" fill="#270B12"/>
<path d="M162.149 306.125C-107.96 306.125 -100.111 0 162.149 0H109.649C-152.611 0 -160.46 306.125 109.649 306.125H162.149Z" fill="#270B12"/>
</g>
<g clip-path="url(#clip6_163_488)">
<path d="M155.024 612.25C425.134 612.25 417.285 306.125 155.024 306.125H207.524C469.785 306.125 477.634 612.25 207.524 612.25H155.024Z" fill="#270B12"/>
<path d="M222.149 306.125C-47.96 306.125 -40.1107 0 222.149 0H169.649C-92.6107 0 -100.46 306.125 169.649 306.125H222.149Z" fill="#270B12"/>
</g>
<g clip-path="url(#clip7_163_488)">
<path d="M215.024 612.25C485.134 612.25 477.285 306.125 215.024 306.125H267.524C529.785 306.125 537.634 612.25 267.524 612.25H215.024Z" fill="#270B12"/>
<path d="M282.149 306.125C12.04 306.125 19.8893 0 282.149 0H229.649C-32.6107 0 -40.46 306.125 229.649 306.125H282.149Z" fill="#270B12"/>
</g>
<g clip-path="url(#clip8_163_488)">
<path d="M275.024 612.25C545.134 612.25 537.285 306.125 275.024 306.125H327.524C589.785 306.125 597.634 612.25 327.524 612.25H275.024Z" fill="#270B12"/>
<path d="M342.149 306.125C72.04 306.125 79.8893 0 342.149 0H289.649C27.3893 0 19.54 306.125 289.649 306.125H342.149Z" fill="#270B12"/>
</g>
<g clip-path="url(#clip9_163_488)">
<path d="M335.024 612.25C605.134 612.25 597.285 306.125 335.024 306.125H387.524C649.785 306.125 657.634 612.25 387.524 612.25H335.024Z" fill="#270B12"/>
<path d="M402.149 306.125C132.04 306.125 139.889 0 402.149 0H349.649C87.3893 0 79.54 306.125 349.649 306.125H402.149Z" fill="#270B12"/>
</g>
<g clip-path="url(#clip10_163_488)">
<path d="M395.024 612.25C665.134 612.25 657.285 306.125 395.024 306.125H447.524C709.785 306.125 717.634 612.25 447.524 612.25H395.024Z" fill="#270B12"/>
<path d="M462.149 306.125C192.04 306.125 199.889 0 462.149 0H409.649C147.389 0 139.54 306.125 409.649 306.125H462.149Z" fill="#270B12"/>
</g>
<g clip-path="url(#clip11_163_488)">
<path d="M455.024 612.25C725.134 612.25 717.285 306.125 455.024 306.125H507.524C769.785 306.125 777.634 612.25 507.524 612.25H455.024Z" fill="#270B12"/>
<path d="M522.149 306.125C252.04 306.125 259.889 0 522.149 0H469.649C207.389 0 199.54 306.125 469.649 306.125H522.149Z" fill="#270B12"/>
</g>
<g clip-path="url(#clip12_163_488)">
<path d="M515.024 612.25C785.134 612.25 777.285 306.125 515.024 306.125H567.524C829.785 306.125 837.634 612.25 567.524 612.25H515.024Z" fill="#270B12"/>
<path d="M582.149 306.125C312.04 306.125 319.889 0 582.149 0H529.649C267.389 0 259.54 306.125 529.649 306.125H582.149Z" fill="#270B12"/>
</g>
<g clip-path="url(#clip13_163_488)">
<path d="M575.024 612.25C845.134 612.25 837.285 306.125 575.024 306.125H627.524C889.785 306.125 897.634 612.25 627.524 612.25H575.024Z" fill="#270B12"/>
<path d="M642.149 306.125C372.04 306.125 379.889 0 642.149 0H589.649C327.389 0 319.54 306.125 589.649 306.125H642.149Z" fill="#270B12"/>
</g>
<g clip-path="url(#clip14_163_488)">
<path d="M635.024 612.25C905.134 612.25 897.285 306.125 635.024 306.125H687.524C949.785 306.125 957.634 612.25 687.524 612.25H635.024Z" fill="#270B12"/>
<path d="M702.149 306.125C432.04 306.125 439.889 0 702.149 0H649.649C387.389 0 379.54 306.125 649.649 306.125H702.149Z" fill="#270B12"/>
</g>
<g clip-path="url(#clip15_163_488)">
<path d="M695.024 612.25C965.134 612.25 957.285 306.125 695.024 306.125H747.524C1009.78 306.125 1017.63 612.25 747.524 612.25H695.024Z" fill="#270B12"/>
<path d="M762.149 306.125C492.04 306.125 499.889 0 762.149 0H709.649C447.389 0 439.54 306.125 709.649 306.125H762.149Z" fill="#270B12"/>
</g>
<g clip-path="url(#clip16_163_488)">
<path d="M755.024 612.25C1025.13 612.25 1017.28 306.125 755.024 306.125H807.524C1069.78 306.125 1077.63 612.25 807.524 612.25H755.024Z" fill="#270B12"/>
<path d="M822.149 306.125C552.04 306.125 559.889 0 822.149 0H769.649C507.389 0 499.54 306.125 769.649 306.125H822.149Z" fill="#270B12"/>
</g>
<g clip-path="url(#clip17_163_488)">
<path d="M815.024 612.25C1085.13 612.25 1077.28 306.125 815.024 306.125H867.524C1129.78 306.125 1137.63 612.25 867.524 612.25H815.024Z" fill="#270B12"/>
<path d="M882.149 306.125C612.04 306.125 619.889 0 882.149 0H829.649C567.389 0 559.54 306.125 829.649 306.125H882.149Z" fill="#270B12"/>
</g>
<g clip-path="url(#clip18_163_488)">
<path d="M875.024 612.25C1145.13 612.25 1137.28 306.125 875.024 306.125H927.524C1189.78 306.125 1197.63 612.25 927.524 612.25H875.024Z" fill="#270B12"/>
<path d="M942.149 306.125C672.04 306.125 679.889 0 942.149 0H889.649C627.389 0 619.54 306.125 889.649 306.125H942.149Z" fill="#270B12"/>
</g>
<g clip-path="url(#clip19_163_488)">
<path d="M935.024 612.25C1205.13 612.25 1197.28 306.125 935.024 306.125H987.524C1249.78 306.125 1257.63 612.25 987.524 612.25H935.024Z" fill="#270B12"/>
<path d="M1002.15 306.125C732.04 306.125 739.889 0 1002.15 0H949.649C687.389 0 679.54 306.125 949.649 306.125H1002.15Z" fill="#270B12"/>
</g>
<g clip-path="url(#clip20_163_488)">
<path d="M995.024 612.25C1265.13 612.25 1257.28 306.125 995.024 306.125H1047.52C1309.78 306.125 1317.63 612.25 1047.52 612.25H995.024Z" fill="#270B12"/>
<path d="M1062.15 306.125C792.04 306.125 799.889 0 1062.15 0H1009.65C747.389 0 739.54 306.125 1009.65 306.125H1062.15Z" fill="#270B12"/>
</g>
<g clip-path="url(#clip21_163_488)">
<path d="M1055.02 612.25C1325.13 612.25 1317.28 306.125 1055.02 306.125H1107.52C1369.78 306.125 1377.63 612.25 1107.52 612.25H1055.02Z" fill="#270B12"/>
<path d="M1122.15 306.125C852.04 306.125 859.889 0 1122.15 0H1069.65C807.389 0 799.54 306.125 1069.65 306.125H1122.15Z" fill="#270B12"/>
</g>
<g clip-path="url(#clip22_163_488)">
<path d="M1115.02 612.25C1385.13 612.25 1377.28 306.125 1115.02 306.125H1167.52C1429.78 306.125 1437.63 612.25 1167.52 612.25H1115.02Z" fill="#270B12"/>
<path d="M1182.15 306.125C912.04 306.125 919.889 0 1182.15 0H1129.65C867.389 0 859.54 306.125 1129.65 306.125H1182.15Z" fill="#270B12"/>
</g>
<g clip-path="url(#clip23_163_488)">
<path d="M1175.02 612.25C1445.13 612.25 1437.28 306.125 1175.02 306.125H1227.52C1489.78 306.125 1497.63 612.25 1227.52 612.25H1175.02Z" fill="#270B12"/>
<path d="M1242.15 306.125C972.04 306.125 979.889 0 1242.15 0H1189.65C927.389 0 919.54 306.125 1189.65 306.125H1242.15Z" fill="#270B12"/>
</g>
<g clip-path="url(#clip24_163_488)">
<path d="M1235.02 612.25C1505.13 612.25 1497.28 306.125 1235.02 306.125H1287.52C1549.78 306.125 1557.63 612.25 1287.52 612.25H1235.02Z" fill="#270B12"/>
<path d="M1302.15 306.125C1032.04 306.125 1039.89 0 1302.15 0H1249.65C987.389 0 979.54 306.125 1249.65 306.125H1302.15Z" fill="#270B12"/>
</g>
<g clip-path="url(#clip25_163_488)">
<path d="M1295.02 612.25C1565.13 612.25 1557.28 306.125 1295.02 306.125H1347.52C1609.78 306.125 1617.63 612.25 1347.52 612.25H1295.02Z" fill="#270B12"/>
<path d="M1362.15 306.125C1092.04 306.125 1099.89 0 1362.15 0H1309.65C1047.39 0 1039.54 306.125 1309.65 306.125H1362.15Z" fill="#270B12"/>
</g>
<g clip-path="url(#clip26_163_488)">
<path d="M1355.02 612.25C1625.13 612.25 1617.28 306.125 1355.02 306.125H1407.52C1669.78 306.125 1677.63 612.25 1407.52 612.25H1355.02Z" fill="#270B12"/>
<path d="M1422.15 306.125C1152.04 306.125 1159.89 0 1422.15 0H1369.65C1107.39 0 1099.54 306.125 1369.65 306.125H1422.15Z" fill="#270B12"/>
</g>
<g clip-path="url(#clip27_163_488)">
<path d="M1415.02 612.25C1685.13 612.25 1677.28 306.125 1415.02 306.125H1467.52C1729.78 306.125 1737.63 612.25 1467.52 612.25H1415.02Z" fill="#270B12"/>
<path d="M1482.15 306.125C1212.04 306.125 1219.89 0 1482.15 0H1429.65C1167.39 0 1159.54 306.125 1429.65 306.125H1482.15Z" fill="#270B12"/>
</g>
<g clip-path="url(#clip28_163_488)">
<path d="M1475.02 612.25C1745.13 612.25 1737.28 306.125 1475.02 306.125H1527.52C1789.78 306.125 1797.63 612.25 1527.52 612.25H1475.02Z" fill="#270B12"/>
<path d="M1542.15 306.125C1272.04 306.125 1279.89 0 1542.15 0H1489.65C1227.39 0 1219.54 306.125 1489.65 306.125H1542.15Z" fill="#270B12"/>
</g>
<g clip-path="url(#clip29_163_488)">
<path d="M1535.02 612.25C1805.13 612.25 1797.28 306.125 1535.02 306.125H1587.52C1849.78 306.125 1857.63 612.25 1587.52 612.25H1535.02Z" fill="#270B12"/>
<path d="M1602.15 306.125C1332.04 306.125 1339.89 0 1602.15 0H1549.65C1287.39 0 1279.54 306.125 1549.65 306.125H1602.15Z" fill="#270B12"/>
</g>
<g clip-path="url(#clip30_163_488)">
<path d="M1595.02 612.25C1865.13 612.25 1857.28 306.125 1595.02 306.125H1647.52C1909.78 306.125 1917.63 612.25 1647.52 612.25H1595.02Z" fill="#270B12"/>
<path d="M1662.15 306.125C1392.04 306.125 1399.89 0 1662.15 0H1609.65C1347.39 0 1339.54 306.125 1609.65 306.125H1662.15Z" fill="#270B12"/>
</g>
<defs>
<clipPath id="clip0_163_488">
<rect width="437.174" height="612.25" fill="white" transform="translate(-390)"/>
</clipPath>
<clipPath id="clip1_163_488">
<rect width="437.174" height="612.25" fill="white" transform="translate(-330)"/>
</clipPath>
<clipPath id="clip2_163_488">
<rect width="437.174" height="612.25" fill="white" transform="translate(-270)"/>
</clipPath>
<clipPath id="clip3_163_488">
<rect width="437.174" height="612.25" fill="white" transform="translate(-210)"/>
</clipPath>
<clipPath id="clip4_163_488">
<rect width="437.174" height="612.25" fill="white" transform="translate(-150)"/>
</clipPath>
<clipPath id="clip5_163_488">
<rect width="437.174" height="612.25" fill="white" transform="translate(-90)"/>
</clipPath>
<clipPath id="clip6_163_488">
<rect width="437.174" height="612.25" fill="white" transform="translate(-30)"/>
</clipPath>
<clipPath id="clip7_163_488">
<rect width="437.174" height="612.25" fill="white" transform="translate(30)"/>
</clipPath>
<clipPath id="clip8_163_488">
<rect width="437.174" height="612.25" fill="white" transform="translate(90)"/>
</clipPath>
<clipPath id="clip9_163_488">
<rect width="437.174" height="612.25" fill="white" transform="translate(150)"/>
</clipPath>
<clipPath id="clip10_163_488">
<rect width="437.174" height="612.25" fill="white" transform="translate(210)"/>
</clipPath>
<clipPath id="clip11_163_488">
<rect width="437.174" height="612.25" fill="white" transform="translate(270)"/>
</clipPath>
<clipPath id="clip12_163_488">
<rect width="437.174" height="612.25" fill="white" transform="translate(330)"/>
</clipPath>
<clipPath id="clip13_163_488">
<rect width="437.174" height="612.25" fill="white" transform="translate(390)"/>
</clipPath>
<clipPath id="clip14_163_488">
<rect width="437.174" height="612.25" fill="white" transform="translate(450)"/>
</clipPath>
<clipPath id="clip15_163_488">
<rect width="437.174" height="612.25" fill="white" transform="translate(510)"/>
</clipPath>
<clipPath id="clip16_163_488">
<rect width="437.174" height="612.25" fill="white" transform="translate(570)"/>
</clipPath>
<clipPath id="clip17_163_488">
<rect width="437.174" height="612.25" fill="white" transform="translate(630)"/>
</clipPath>
<clipPath id="clip18_163_488">
<rect width="437.174" height="612.25" fill="white" transform="translate(690)"/>
</clipPath>
<clipPath id="clip19_163_488">
<rect width="437.174" height="612.25" fill="white" transform="translate(750)"/>
</clipPath>
<clipPath id="clip20_163_488">
<rect width="437.174" height="612.25" fill="white" transform="translate(810)"/>
</clipPath>
<clipPath id="clip21_163_488">
<rect width="437.174" height="612.25" fill="white" transform="translate(870)"/>
</clipPath>
<clipPath id="clip22_163_488">
<rect width="437.174" height="612.25" fill="white" transform="translate(930)"/>
</clipPath>
<clipPath id="clip23_163_488">
<rect width="437.174" height="612.25" fill="white" transform="translate(990)"/>
</clipPath>
<clipPath id="clip24_163_488">
<rect width="437.174" height="612.25" fill="white" transform="translate(1050)"/>
</clipPath>
<clipPath id="clip25_163_488">
<rect width="437.174" height="612.25" fill="white" transform="translate(1110)"/>
</clipPath>
<clipPath id="clip26_163_488">
<rect width="437.174" height="612.25" fill="white" transform="translate(1170)"/>
</clipPath>
<clipPath id="clip27_163_488">
<rect width="437.174" height="612.25" fill="white" transform="translate(1230)"/>
</clipPath>
<clipPath id="clip28_163_488">
<rect width="437.174" height="612.25" fill="white" transform="translate(1290)"/>
</clipPath>
<clipPath id="clip29_163_488">
<rect width="437.174" height="612.25" fill="white" transform="translate(1350)"/>
</clipPath>
<clipPath id="clip30_163_488">
<rect width="437.174" height="612.25" fill="white" transform="translate(1410)"/>
</clipPath>
</defs>
</svg>
