<svg width="510" height="151" viewBox="0 0 510 151" fill="none" xmlns="http://www.w3.org/2000/svg">
<path d="M5 98C5 86.5 26.5 86 26.5 98C28.3333 93.6667 28.7 85 15.5 85C2.3 85 0 93 0 98C0 107 6.2 119 33 119C66.5 119 83 92 52.5 68.5C42.5 60.7951 30 66 19 60.5C19 72.5 32.5 67.85 47 78C67 92 53 113 33 113C19.5 113 5 109.5 5 98Z" fill="#4BEA15"/>
<path d="M64.5723 27C64.5723 38.5 43.0724 39 43.0724 27C41.239 31.3333 40.8723 40 54.0723 40C67.2723 40 69.5723 32 69.5723 27C69.5723 18 63.3723 6 36.5723 6C3.07233 6 -13.4277 33 17.0723 56.5C27.0723 64.2049 39.5723 59 50.5723 64.5C50.5723 52.5 37.0723 57.15 22.5723 47C2.57233 33 16.5723 12 36.5723 12C50.0723 12 64.5723 15.5 64.5723 27Z" fill="#154BEA"/>
<path d="M74.48 56.024V55H77.168V42.2H86.128V55H105.712V56.024H86.128V102.616C86.128 108.163 86.7253 112.173 87.92 114.648C89.2 117.123 91.8027 118.36 95.728 118.36C99.7387 118.36 103.792 117.549 107.888 115.928L108.272 116.952C104.005 118.573 99.0987 119.384 93.552 119.384C88.0907 119.384 83.9947 118.275 81.264 116.056C78.5333 113.752 77.168 109.229 77.168 102.488V56.024H74.48ZM126.83 104.28C126.83 111.021 128.622 115.331 132.206 117.208C133.913 118.061 136.089 118.488 138.734 118.488C144.11 118.488 148.889 116.44 153.07 112.344C157.337 108.248 159.641 104.451 159.982 100.952V55H168.942V109.912C168.942 112.387 169.411 114.307 170.35 115.672C171.374 116.952 172.398 117.635 173.422 117.72L174.83 117.976H178.798V119H170.99C167.491 119 164.803 118.232 162.926 116.696C161.134 115.16 160.195 113.624 160.11 112.088L159.982 109.912V104.408C158.446 108.077 155.715 111.533 151.79 114.776C147.865 117.933 143.555 119.512 138.862 119.512C134.254 119.512 130.457 119.085 127.47 118.232C124.569 117.293 122.478 116.013 121.198 114.392C118.979 111.747 117.87 108.333 117.87 104.152V55H126.83V104.28ZM181.37 89.304C181.37 78.2107 184.058 69.6347 189.434 63.576C194.81 57.5173 202.874 54.488 213.626 54.488C218.661 54.488 223.738 55.768 228.858 58.328V23.128H237.818V109.912C237.818 112.387 238.287 114.307 239.226 115.672C240.25 116.952 241.274 117.635 242.298 117.72L243.706 117.976H247.674V119H239.866C236.367 119 233.679 118.232 231.802 116.696C230.01 115.16 229.071 113.624 228.986 112.088L228.858 109.912V107.864C227.237 110.851 224.549 113.496 220.794 115.8C217.039 118.104 212.602 119.256 207.482 119.256C190.074 118.829 181.37 108.845 181.37 89.304ZM207.61 118.232C213.327 118.232 218.234 116.696 222.33 113.624C226.426 110.552 228.602 107.523 228.858 104.536V59.48C222.799 56.8347 217.594 55.512 213.242 55.512C205.647 55.512 199.93 58.4987 196.09 64.472C192.25 70.36 190.33 78.6373 190.33 89.304C190.33 108.589 196.09 118.232 207.61 118.232ZM312.654 29.4V30.68H272.334V71.64H309.71V72.92H272.334V119H261.71V29.4H312.654ZM350.081 119.512C341.121 119.512 333.825 116.952 328.193 111.832C322.561 106.712 319.745 98.8187 319.745 88.152C319.745 77.4853 322.646 69.208 328.449 63.32C334.337 57.432 341.761 54.488 350.721 54.488C359.766 54.488 367.105 57.048 372.737 62.168C378.369 67.288 381.185 75.1813 381.185 85.848C381.185 96.5147 378.241 104.792 372.353 110.68C366.55 116.568 359.126 119.512 350.081 119.512ZM350.977 55.512C344.492 55.512 339.116 58.4133 334.849 64.216C330.582 69.9333 328.449 77.9547 328.449 88.28C328.449 98.52 330.412 106.115 334.337 111.064C338.262 116.013 343.468 118.488 349.953 118.488C356.438 118.488 361.814 115.629 366.081 109.912C370.348 104.109 372.481 96.088 372.481 85.848C372.481 75.5227 370.518 67.8853 366.593 62.936C362.668 57.9867 357.462 55.512 350.977 55.512ZM407.626 119C400.117 119 395.381 117.037 393.418 113.112C392.991 112.259 392.778 111.491 392.778 110.808V23.128H401.738V109.912C401.738 112.387 402.207 114.307 403.146 115.672C404.17 116.952 405.194 117.635 406.218 117.72L407.626 117.976H411.594V119H407.626ZM431.801 119C428.302 119 425.614 118.232 423.737 116.696C421.945 115.16 421.006 113.624 420.921 112.088L420.793 109.912V55H429.753V109.912C429.753 112.387 430.222 114.307 431.161 115.672C432.185 116.952 433.166 117.635 434.105 117.72L435.641 117.976H439.609V119H431.801ZM421.561 40.664C420.537 39.64 420.025 38.36 420.025 36.824C420.025 35.288 420.537 34.008 421.561 32.984C422.585 31.8747 423.865 31.32 425.401 31.32C426.937 31.32 428.217 31.8747 429.241 32.984C430.35 34.008 430.905 35.288 430.905 36.824C430.905 38.36 430.35 39.64 429.241 40.664C428.217 41.688 426.937 42.2 425.401 42.2C423.865 42.2 422.585 41.688 421.561 40.664ZM473.831 119.512C464.871 119.512 457.575 116.952 451.943 111.832C446.311 106.712 443.495 98.8187 443.495 88.152C443.495 77.4853 446.396 69.208 452.199 63.32C458.087 57.432 465.511 54.488 474.471 54.488C483.516 54.488 490.855 57.048 496.487 62.168C502.119 67.288 504.935 75.1813 504.935 85.848C504.935 96.5147 501.991 104.792 496.103 110.68C490.3 116.568 482.876 119.512 473.831 119.512ZM474.727 55.512C468.242 55.512 462.866 58.4133 458.599 64.216C454.332 69.9333 452.199 77.9547 452.199 88.28C452.199 98.52 454.162 106.115 458.087 111.064C462.012 116.013 467.218 118.488 473.703 118.488C480.188 118.488 485.564 115.629 489.831 109.912C494.098 104.109 496.231 96.088 496.231 85.848C496.231 75.5227 494.268 67.8853 490.343 62.936C486.418 57.9867 481.212 55.512 474.727 55.512Z" fill="#270B12"/>
</svg>
