<svg width="88" height="60" viewBox="0 0 88 60" fill="none" xmlns="http://www.w3.org/2000/svg">
<path d="M59.8594 0.5H79.333C83.4751 0.5 86.833 3.85787 86.833 8V26.9219L87.3359 51.8486C87.4206 56.049 84.0382 59.5 79.8369 59.5H8C3.85786 59.5 0.5 56.1421 0.5 52V12.4121C0.5 8.26997 3.85786 4.91211 8 4.91211H48.8213C50.9396 4.91205 52.9813 4.12038 54.5469 2.69336L54.8066 2.45703C56.188 1.19791 57.9902 0.5 59.8594 0.5Z" fill="#E0E7FC" stroke="black"/>
<path d="M60.7199 40.5765C52.5799 47.6509 36.2999 47.6509 28.1599 40.5765C28.1599 33.5021 34.6719 29.1487 37.3852 29.1487C39.2846 34.0463 49.3239 34.0463 51.2232 29.1487C54.2079 29.1487 60.7199 33.5021 60.7199 40.5765Z" fill="#270B12"/>
<path d="M51.4946 22.0744C51.4946 25.9814 48.3361 29.1487 44.4399 29.1487C40.5437 29.1487 37.3853 25.9814 37.3853 22.0744C37.3853 18.1673 40.5437 15 44.4399 15C48.3361 15 51.4946 18.1673 51.4946 22.0744Z" fill="#270B12"/>
</svg>
