<svg width="80" height="60" viewBox="0 0 80 60" fill="none" xmlns="http://www.w3.org/2000/svg">
<path fill-rule="evenodd" clip-rule="evenodd" d="M54.1936 46.5217H36.9893V56C36.9893 58.2091 38.7801 60 40.9893 60H76C78.2091 60 80 58.2091 80 56V46.5217H62.7957V50.2399C62.7957 51.2666 62.0254 52.0989 61.0753 52.0989H55.914C54.9638 52.0989 54.1936 51.2666 54.1936 50.2399V46.5217Z" fill="#E0E7FC"/>
<path d="M36.9893 45.2173H80V33.5651C80 31.356 78.2092 29.5651 76 29.5651H40.9893C38.7801 29.5651 36.9893 31.356 36.9893 33.5651V45.2173Z" fill="#E0E7FC"/>
<path fill-rule="evenodd" clip-rule="evenodd" d="M52.043 29.2753H53.3763C53.3763 26.3298 55.7641 23.942 58.7096 23.942C61.6552 23.942 64.043 26.3298 64.043 29.2753H65.3763C65.3763 25.5934 62.3915 22.6086 58.7096 22.6086C55.0277 22.6086 52.043 25.5934 52.043 29.2753Z" fill="#E0E7FC"/>
<path d="M14.6237 22.6086C10.3226 22.6086 0 29.5652 0 40.8695C8.77918 48.5608 23.5316 51.0191 36.129 48.2443V45.6521V44.3478C36.129 44.3478 36.129 37.7976 36.129 33.0434C36.129 30.4347 37.8495 28.6956 40.4301 28.6956C43.4409 28.6956 46.9735 28.6956 46.9735 28.6956C43.6118 24.7904 39.2087 22.6086 36.5591 22.6086C33.5484 30.4347 17.6344 30.4347 14.6237 22.6086Z" fill="#E0E7FC"/>
<path d="M36.9891 11.3043C36.9891 17.5476 31.9824 22.6087 25.8063 22.6087C19.6302 22.6087 14.6235 17.5476 14.6235 11.3043C14.6235 5.06113 19.6302 0 25.8063 0C31.9824 0 36.9891 5.06113 36.9891 11.3043Z" fill="#E0E7FC"/>
</svg>
