<svg width="119" height="60" viewBox="0 0 119 60" fill="none" xmlns="http://www.w3.org/2000/svg">
<path fill-rule="evenodd" clip-rule="evenodd" d="M119 40.2786C112.342 46.1478 102.178 48.925 92.201 48.6102C91.6658 35.5194 80.0103 27.3774 74.1581 26.9758C77.1842 23.9492 80.696 22.2817 82.7734 22.2817C85.7221 29.9947 101.308 29.9947 104.256 22.2817C108.89 22.2817 119 29.1377 119 40.2786Z" fill="#E0E7FC"/>
<path d="M104.678 11.1409C104.678 17.2939 99.7744 22.2818 93.7256 22.2818C87.6769 22.2818 82.7734 17.2939 82.7734 11.1409C82.7734 4.98796 87.6769 0 93.7256 0C99.7744 0 104.678 4.98796 104.678 11.1409Z" fill="#E0E7FC"/>
<path fill-rule="evenodd" clip-rule="evenodd" d="M0.000139289 40.2786C6.65763 46.1478 16.8224 48.925 26.799 48.6102C27.3342 35.5194 38.9897 27.3774 44.8419 26.9758C41.8158 23.9492 38.304 22.2817 36.2266 22.2817C33.2779 29.9947 17.6922 29.9947 14.7435 22.2817C10.1099 22.2817 0.000139289 29.1377 0.000139289 40.2786Z" fill="#E0E7FC"/>
<path d="M14.3221 11.1409C14.3221 17.2939 19.2256 22.2818 25.2744 22.2818C31.3231 22.2818 36.2266 17.2939 36.2266 11.1409C36.2266 4.98796 31.3231 0 25.2744 0C19.2256 0 14.3221 4.98796 14.3221 11.1409Z" fill="#E0E7FC"/>
<path d="M91.0929 49.6917C75.2965 63.4361 43.7036 63.4361 27.9071 49.6917C27.9071 35.9472 40.5443 27.489 45.8098 27.489C49.4956 37.0044 68.9779 37.0044 72.6637 27.489C78.4558 27.489 91.0929 35.9472 91.0929 49.6917Z" fill="#E0E7FC"/>
<path d="M73.1903 13.7445C73.1903 21.3354 67.061 27.489 59.5001 27.489C51.9392 27.489 45.8098 21.3354 45.8098 13.7445C45.8098 6.15362 51.9392 0 59.5001 0C67.061 0 73.1903 6.15362 73.1903 13.7445Z" fill="#E0E7FC"/>
</svg>
