<svg width="383" height="114" viewBox="0 0 383 114" fill="none" xmlns="http://www.w3.org/2000/svg">
<path d="M3.75 73.5C3.75 64.875 19.875 64.5 19.875 73.5C21.25 70.25 21.525 63.75 11.625 63.75C1.725 63.75 0 69.75 0 73.5C0 80.25 4.65 89.25 24.75 89.25C49.875 89.25 62.25 69 39.375 51.375C31.875 45.5963 22.5 49.5 14.25 45.375C14.25 54.375 24.375 50.8875 35.25 58.5C50.25 69 39.75 84.75 24.75 84.75C14.625 84.75 3.75 82.125 3.75 73.5Z" fill="#E0E7FC"/>
<path d="M48.4292 20.25C48.4292 28.875 32.3042 29.25 32.3042 20.25C30.9292 23.5 30.6542 30 40.5542 30C50.4542 30 52.1792 24 52.1792 20.25C52.1792 13.5 47.5292 4.49999 27.4292 4.49999C2.3042 4.49999 -10.0708 24.75 12.8042 42.375C20.3042 48.1537 29.6792 44.25 37.9292 48.375C37.9292 39.375 27.8042 42.8625 16.9292 35.25C1.9292 24.75 12.4292 8.99999 27.4292 8.99999C37.5542 8.99999 48.4292 11.625 48.4292 20.25Z" fill="#E0E7FC"/>
<path d="M55.86 41.768V41H57.876V31.4H64.596V41H79.284V41.768H64.596V76.712C64.596 80.872 65.044 83.88 65.94 85.736C66.9 87.592 68.852 88.52 71.796 88.52C74.804 88.52 77.844 87.912 80.916 86.696L81.204 87.464C78.004 88.68 74.324 89.288 70.164 89.288C66.068 89.288 62.996 88.456 60.948 86.792C58.9 85.064 57.876 81.672 57.876 76.616V41.768H55.86ZM95.1225 77.96C95.1225 83.016 96.4665 86.248 99.1545 87.656C100.435 88.296 102.067 88.616 104.051 88.616C108.083 88.616 111.667 87.08 114.803 84.008C118.003 80.936 119.731 78.088 119.987 75.464V41H126.707V82.184C126.707 84.04 127.059 85.48 127.763 86.504C128.531 87.464 129.299 87.976 130.067 88.04L131.123 88.232H134.099V89H128.243C125.619 89 123.603 88.424 122.195 87.272C120.851 86.12 120.147 84.968 120.083 83.816L119.987 82.184V78.056C118.835 80.808 116.787 83.4 113.843 85.832C110.899 88.2 107.667 89.384 104.147 89.384C100.691 89.384 97.8425 89.064 95.6025 88.424C93.4265 87.72 91.8585 86.76 90.8985 85.544C89.2345 83.56 88.4025 81 88.4025 77.864V41H95.1225V77.96ZM136.028 66.728C136.028 58.408 138.044 51.976 142.076 47.432C146.108 42.888 152.156 40.616 160.22 40.616C163.996 40.616 167.804 41.576 171.644 43.496V17.096H178.364V82.184C178.364 84.04 178.716 85.48 179.42 86.504C180.188 87.464 180.956 87.976 181.724 88.04L182.78 88.232H185.756V89H179.9C177.276 89 175.26 88.424 173.852 87.272C172.508 86.12 171.804 84.968 171.74 83.816L171.644 82.184V80.648C170.428 82.888 168.412 84.872 165.596 86.6C162.78 88.328 159.452 89.192 155.612 89.192C142.556 88.872 136.028 81.384 136.028 66.728ZM155.708 88.424C159.996 88.424 163.676 87.272 166.748 84.968C169.82 82.664 171.452 80.392 171.644 78.152V44.36C167.1 42.376 163.196 41.384 159.932 41.384C154.236 41.384 149.948 43.624 147.068 48.104C144.188 52.52 142.748 58.728 142.748 66.728C142.748 81.192 147.068 88.424 155.708 88.424ZM234.491 21.8V22.76H204.251V53.48H232.283V54.44H204.251V89H196.283V21.8H234.491ZM262.561 89.384C255.841 89.384 250.369 87.464 246.145 83.624C241.921 79.784 239.809 73.864 239.809 65.864C239.809 57.864 241.985 51.656 246.337 47.24C250.753 42.824 256.321 40.616 263.041 40.616C269.825 40.616 275.329 42.536 279.553 46.376C283.777 50.216 285.889 56.136 285.889 64.136C285.889 72.136 283.681 78.344 279.265 82.76C274.913 87.176 269.345 89.384 262.561 89.384ZM263.233 41.384C258.369 41.384 254.337 43.56 251.137 47.912C247.937 52.2 246.337 58.216 246.337 65.96C246.337 73.64 247.809 79.336 250.753 83.048C253.697 86.76 257.601 88.616 262.465 88.616C267.329 88.616 271.361 86.472 274.561 82.184C277.761 77.832 279.361 71.816 279.361 64.136C279.361 56.392 277.889 50.664 274.945 46.952C272.001 43.24 268.097 41.384 263.233 41.384ZM305.72 89C300.088 89 296.536 87.528 295.064 84.584C294.744 83.944 294.584 83.368 294.584 82.856V17.096H301.304V82.184C301.304 84.04 301.656 85.48 302.359 86.504C303.128 87.464 303.896 87.976 304.664 88.04L305.72 88.232H308.696V89H305.72ZM323.851 89C321.227 89 319.211 88.424 317.803 87.272C316.459 86.12 315.755 84.968 315.691 83.816L315.595 82.184V41H322.315V82.184C322.315 84.04 322.667 85.48 323.371 86.504C324.139 87.464 324.875 87.976 325.579 88.04L326.731 88.232H329.707V89H323.851ZM316.171 30.248C315.403 29.48 315.019 28.52 315.019 27.368C315.019 26.216 315.403 25.256 316.171 24.488C316.939 23.656 317.899 23.24 319.051 23.24C320.203 23.24 321.163 23.656 321.931 24.488C322.763 25.256 323.179 26.216 323.179 27.368C323.179 28.52 322.763 29.48 321.931 30.248C321.163 31.016 320.203 31.4 319.051 31.4C317.899 31.4 316.939 31.016 316.171 30.248ZM355.373 89.384C348.653 89.384 343.181 87.464 338.957 83.624C334.733 79.784 332.621 73.864 332.621 65.864C332.621 57.864 334.797 51.656 339.149 47.24C343.565 42.824 349.133 40.616 355.853 40.616C362.637 40.616 368.141 42.536 372.365 46.376C376.589 50.216 378.701 56.136 378.701 64.136C378.701 72.136 376.493 78.344 372.077 82.76C367.725 87.176 362.157 89.384 355.373 89.384ZM356.045 41.384C351.181 41.384 347.149 43.56 343.949 47.912C340.749 52.2 339.149 58.216 339.149 65.96C339.149 73.64 340.621 79.336 343.565 83.048C346.509 86.76 350.413 88.616 355.277 88.616C360.141 88.616 364.173 86.472 367.373 82.184C370.573 77.832 372.173 71.816 372.173 64.136C372.173 56.392 370.701 50.664 367.757 46.952C364.813 43.24 360.909 41.384 356.045 41.384Z" fill="#E0E7FC"/>
</svg>
