<svg width="128" height="128" viewBox="0 0 128 128" fill="none" xmlns="http://www.w3.org/2000/svg">
<path fill-rule="evenodd" clip-rule="evenodd" d="M64 24C66.7614 24 69 26.2386 69 29V54.1994C67.4999 53.4326 65.8004 53 64 53C62.1996 53 60.5001 53.4326 59 54.1994V29C59 26.2386 61.2386 24 64 24ZM59 73.8006V99C59 101.761 61.2386 104 64 104C66.7614 104 69 101.761 69 99V73.8006C67.4999 74.5674 65.8004 75 64 75C62.1996 75 60.5001 74.5674 59 73.8006Z" fill="#4BEA15"/>
<path d="M29 59C26.2386 59 24 61.2386 24 64C24 66.7614 26.2386 69 29 69H54.1994C53.4326 67.4999 53 65.8004 53 64C53 62.1996 53.4326 60.5001 54.1994 59H29Z" fill="#154BEA"/>
<path d="M99 69C101.761 69 104 66.7614 104 64C104 61.2386 101.761 59 99 59H73.8006C74.5674 60.5001 75 62.1996 75 64C75 65.8004 74.5674 67.4999 73.8006 69H99Z" fill="#154BEA"/>
<path d="M72 64C72 68.4183 68.4183 72 64 72C59.5817 72 56 68.4183 56 64C56 59.5817 59.5817 56 64 56C68.4183 56 72 59.5817 72 64Z" fill="#270B12"/>
</svg>
