<svg width="128" height="128" viewBox="0 0 128 128" fill="none" xmlns="http://www.w3.org/2000/svg">
<rect x="49" y="29" width="30" height="30" rx="15" fill="#4BEA15"/>
<path fill-rule="evenodd" clip-rule="evenodd" d="M29.3523 94.0148C28.9625 96.7486 31.2386 99 34 99C36.7614 99 38.9478 96.7389 39.4936 94.0319C41.7976 82.6048 51.8939 74 64 74C76.1061 74 86.2024 82.6048 88.5064 94.0319C89.0522 96.7389 91.2386 99 94 99C96.7614 99 99.0375 96.7486 98.6477 94.0148C96.2279 77.0461 81.6375 64 64 64C46.3625 64 31.7721 77.0461 29.3523 94.0148Z" fill="#154BEA"/>
<path fill-rule="evenodd" clip-rule="evenodd" d="M74 99C76.7614 99 79.0816 96.7 78.1781 94.0905C76.1447 88.2173 70.5649 84 64 84C57.4351 84 51.8553 88.2173 49.8219 94.0905C48.9184 96.7 51.2386 99 54 99H74Z" fill="#270B12"/>
</svg>
