<svg width="75" height="56" viewBox="0 0 75 56" fill="none" xmlns="http://www.w3.org/2000/svg">
<path d="M5 1H70C72.2091 1 74 2.79086 74 5V35C74 37.2091 72.2091 39 70 39H41.3877C40.1807 39 39.0018 39.3644 38.0049 40.0449L23.6611 49.8359C21.0061 51.6483 17.4062 49.7469 17.4062 46.5322V45C17.4062 41.6863 14.72 39 11.4062 39H5C2.79086 39 1 37.2091 1 35V5C1 2.79086 2.79086 1 5 1Z" stroke="#154BEA" stroke-width="2"/>
<path fill-rule="evenodd" clip-rule="evenodd" d="M34.8907 25.374V28.1583C35.584 27.5048 36.5126 27.1053 37.533 27.1053C37.5546 27.1053 37.5761 27.1054 37.5976 27.1058C38.0971 27.1141 38.5729 27.2179 39.0095 27.4004C39.5113 27.6099 39.9604 27.9228 40.331 28.3133V27.927V25.374C40.331 24.0796 40.4981 23.1035 40.7776 22.3379C41.3301 20.8244 42.3216 20.1335 43.3286 19.4317C44.9191 18.3234 46.5484 17.188 46.5484 12.7424C46.5484 12.4729 46.5335 12.2087 46.5044 11.9501C46.3304 10.4014 45.651 9.05383 44.6559 7.96814C40.4636 3.39396 30.6676 3.46889 29.4504 12.7424L34.1135 12.7424C34.1135 8.74735 39.089 8.12176 40.6473 10.8656C40.7933 11.1226 40.9092 11.4092 40.9883 11.7253C41.066 12.0358 41.1081 12.3748 41.1081 12.7424C41.1081 15.6494 39.7909 16.7166 38.3691 17.8686C36.7018 19.2195 34.8907 20.6869 34.8907 25.374Z" fill="#154BEA"/>
<path d="M40.6418 31.8421C40.6418 33.5862 39.2499 35 37.533 35C35.8161 35 34.4243 33.5862 34.4243 31.8421C34.4243 30.098 35.8161 28.6842 37.533 28.6842C39.2499 28.6842 40.6418 30.098 40.6418 31.8421Z" fill="#270B12"/>
<path d="M40.331 25.374V27.927C41.2209 28.489 41.8128 29.3624 42.0487 30.3269L43.4955 27.7814C45.3921 24.4443 47.1829 24.3027 49.0164 24.1577C50.9394 24.0057 52.9093 23.8499 55.0974 20C58.5759 13.8798 51.3387 5.70092 44.6559 7.96814C45.651 9.05383 46.3304 10.4014 46.5044 11.9501C49.1008 11.3339 52.1532 14.1275 50.386 17.2368C48.9551 19.7544 47.2891 20.0096 45.4907 20.2851C43.9918 20.5147 42.4009 20.7584 40.7776 22.3379C40.4981 23.1035 40.331 24.0796 40.331 25.374Z" fill="#270B12"/>
<path d="M40.9883 11.7253C40.9092 11.4092 40.7933 11.1226 40.6473 10.8656C40.527 11.0103 40.4079 11.1603 40.2901 11.3158L40.9883 11.7253Z" fill="#270B12"/>
<path fill-rule="evenodd" clip-rule="evenodd" d="M37.5976 27.1058L38.7841 25.0182C39.4513 23.8443 40.1171 22.9805 40.7776 22.3379C40.4981 23.1035 40.331 24.0796 40.331 25.374V27.927C40.2946 27.904 40.2576 27.8815 40.2202 27.8596C39.8336 27.6328 39.4246 27.4813 39.0095 27.4004C38.5729 27.2179 38.0971 27.1141 37.5976 27.1058ZM44.6559 7.96814C43.2615 8.44124 41.8911 9.36919 40.6473 10.8656C40.7933 11.1226 40.9092 11.4092 40.9883 11.7253L44.3285 13.6842C44.8928 12.6913 45.6753 12.1469 46.5044 11.9501C46.3304 10.4014 45.651 9.05383 44.6559 7.96814Z" fill="#154BEA"/>
<path d="M39.0095 27.4004C38.5729 27.2179 38.0971 27.1141 37.5976 27.1058L37.4136 27.4295C37.9323 27.3092 38.4759 27.2964 39.0095 27.4004Z" fill="#270B12"/>
<path fill-rule="evenodd" clip-rule="evenodd" d="M31.7553 26.9865L33.1258 29.3978C33.4046 28.4797 34.0121 27.662 34.8958 27.1438C35.8474 26.5857 36.9348 26.4829 37.9135 26.7689L36.4667 24.2234C34.5701 20.8863 35.3448 19.2401 36.1379 17.5547C36.9698 15.787 37.8219 13.9761 35.6337 10.1262C31.3592 2.60539 16.3437 7.76533 20.8264 18.8104L24.8648 16.442C22.5332 12.3398 28.5908 8.78714 30.9223 12.8893C32.3532 15.4069 31.7378 17.0001 31.0734 18.72C30.2945 20.7366 29.4482 22.9274 31.7553 26.9865Z" fill="#4BEA15"/>
</svg>
