<svg width="128" height="128" viewBox="0 0 128 128" fill="none" xmlns="http://www.w3.org/2000/svg">
<path d="M34 99C34 87.5 55.5 87 55.5 99C57.3333 94.6667 57.7 86 44.5 86C31.3 86 29 94 29 99C29 108 35.2 120 62 120C95.5 120 112 93 81.5 69.5C71.5 61.7951 59 67 48 61.5C48 73.5 61.5 68.85 76 79C96 93 82 114 62 114C48.5 114 34 110.5 34 99Z" fill="#4BEA15"/>
<path d="M93.5723 28C93.5723 39.5 72.0723 40 72.0723 28C70.239 32.3333 69.8723 41 83.0723 41C96.2723 41 98.5723 33 98.5723 28C98.5723 19 92.3723 7 65.5723 7C32.0723 7 15.5723 34 46.0723 57.5C56.0723 65.2049 68.5723 60 79.5723 65.5C79.5723 53.5 66.0723 58.15 51.5723 48C31.5723 34 45.5723 13 65.5723 13C79.0723 13 93.5723 16.5 93.5723 28Z" fill="#154BEA"/>
</svg>
